<svg version="1.1" xmlns="http://www.w3.org/2000/svg" xmlns:xlink="http://www.w3.org/1999/xlink" x="0px" y="0px"
	 viewBox="0 0 210.1 63.7" style="enable-background:new 0 0 210.1 63.7;" xml:space="preserve">
<g id="clear_space">
	<rect x="-16.9" y="-15.4" class="st0" width="243.6" height="93.8" fill="none"/>
</g>
	<g id="logo" fill="#282B37">
	<g>
		<path d="M52.7,51.9H41.8l-3.3-8.1H20.3l-3,8.1H6.5l16.4-40.7h11.7L52.7,51.9z M28.9,20.9l-6,15.8h12.5L28.9,20.9z"/>
		<path d="M92.3,11.2h8.8v40.7H91V26.5l-11,12.8h-1.5l-11-12.8v25.4H57.4V11.2h8.8l13.1,15.1L92.3,11.2z"/>
		<path d="M126.8,11.2c14.8,0,22.5,9.2,22.5,20.4c0,11.7-7.4,20.3-23.6,20.3h-16.8V11.2H126.8z M119,44.4h6.6
			c10.2,0,13.2-6.9,13.2-12.9c0-7-3.8-12.9-13.4-12.9H119V44.4z"/>
	</g>
		<g>
		<polygon points="190.5,20.9 169.5,20.9 156.7,8.1 203.2,8.1 203.2,54.6 190.5,41.8 		"/>
			<polygon points="169.5,41.8 169.5,23.4 156.3,36.6 156.3,55 174.7,55 187.9,41.8 		"/>
	</g>
</g>
</svg>