<svg width="550" height="170" xmlns="http://www.w3.org/2000/svg">

 <g>
  <title>Layer 1</title>
  <g stroke="null">
   <g stroke="null">
    <g stroke="null">
     <path stroke="null" fill="#3730a3" clip-rule="evenodd" fill-rule="evenodd" d="m461.9,61.5l0,16.9l-11.6,0c-5.6,0 -10.3,0.4 -14.1,1.2c-3.7,0.8 -7.1,2.2 -10.1,4c-5.7,3.5 -8.5,7.9 -8.5,13.1c0,4.9 2.7,9.1 8.2,12.6c3.2,2.1 6.8,3.5 10.7,4.3c3.9,0.8 9,1.3 15.2,1.3l10.3,0l0,16.9l-15.5,0c-13.9,0 -25.4,-1.6 -34.3,-4.9c-11.2,-4.1 -19.1,-10.1 -23.7,-18c-2.3,-3.9 -3.5,-8 -3.5,-12.1c0,-5.4 2,-10.6 5.9,-15.7c3,-3.9 6.9,-7.3 11.8,-10.2c7.1,-4.2 15.6,-7 25.4,-8.3c5.8,-0.8 12.3,-1.2 19.6,-1.2l14.2,0l0,0.1z" class="st0"/>
     <path stroke="null" fill="#3730a3" clip-rule="evenodd" fill-rule="evenodd" d="m494,37.5l0,40.7l0.2,0.8c10.5,1.4 21.9,-1.2 27.2,-10.7c2.7,-4 3.4,-6.8 3.4,-6.8l23.3,0c4.1,12.1 -6.3,22.7 -16.7,26.8c16.8,11.1 18.9,23.1 18.2,43.5l-27.6,0l0,0c0.4,-16.4 -2.2,-35.5 -28,-33.9l0,33.9l-29,0l0,-94.3l29,0l0,0z" class="st0"/>
     <path stroke="null" fill="#3730a3" clip-rule="evenodd" fill-rule="evenodd" d="m116.3,132.5l53.1,0l4.2,-0.1c17.7,-0.5 29.5,-14.4 29.6,-29.5c0.2,-16.9 -15.3,-27.3 -33.1,-27.3l-30,0l-1.5,0c-4.8,0 -8,-4.1 -8.3,-8.2c-0.3,-4.7 3.5,-9.7 9,-9.7l58.9,0l0,-20l-60,0c-22.9,0 -32.7,12.8 -33.1,28.1c-0.4,15 11.8,29.8 29.5,29.8l32.7,0l3.6,0.2c4.4,0.3 7.2,3.7 7.4,7.4c0.3,4.7 -4.4,9.1 -9.9,9.1l-65.1,0.3l0.4,-75l-40.1,0c-12.3,-0.3 -18.9,7.4 -23.6,18l-40,76.7l2.3,0.1l29.7,-0.3c10.4,-21.7 20.9,-43.4 31.3,-65.1c4,-6.9 6.2,-8 13.5,-7.2l0,72.7l39.5,0l0,0z" class="st0"/>
     <path stroke="null" fill="#3730a3" clip-rule="evenodd" fill-rule="evenodd" d="m252,37.5c7.7,0.2 13.8,-0.5 18.8,1c10.7,3 16.4,7.7 19.3,13.5c1.6,3.2 2.1,6.6 2.1,10.1c0,6.5 -1.9,12.1 -6.3,16.3c-2,1.9 -4,3.4 -6.4,4.4c-2.4,1 -6.1,2.3 -10.4,3.1c17.4,9.7 22,20.5 22,45.6l-30.2,0c0,-25.5 -10.2,-35.5 -31.6,-35.2l0,35.5l-22.6,0l0,-94.3l45.3,0l0,0zm-22.7,36.6l21.3,0c5.1,0 8.1,-1 9.6,-2.5c1.2,-1.3 1.8,-3 1.8,-4.7c0,-2.3 -0.9,-4 -2.5,-5.1c-1.7,-1.1 -4.6,-1.9 -8.2,-1.9l-22,0l0,14.2l0,0z" class="st0"/>
     <path stroke="null" fill="#3730a3" clip-rule="evenodd" fill-rule="evenodd" d="m336.9,81.8c8.8,0 16,6.7 16,14.8c0,8.2 -7.2,14.8 -16,14.8c-8.8,0 -16,-6.7 -16,-14.8c0,-8.1 7.2,-14.8 16,-14.8l0,0z" class="st0"/>
     <path stroke="null" fill="#3730a3" clip-rule="evenodd" fill-rule="evenodd" d="m336.9,61.5c25.6,0 46.4,15.8 46.4,35.2c0,19.4 -20.9,35.2 -46.4,35.2c-25.6,0 -46.4,-15.8 -46.4,-35.2c-0.1,-19.4 20.8,-35.2 46.4,-35.2l0,0zm0,15.3c11.7,0 21.3,8.9 21.3,19.8c0,10.9 -9.6,19.8 -21.3,19.8c-11.7,0 -21.3,-8.9 -21.3,-19.8c-0.1,-10.9 9.5,-19.8 21.3,-19.8l0,0z" class="st0"/>
     <path stroke="null" fill="#3730a3" clip-rule="evenodd" fill-rule="evenodd" d="m536.9,41.9c3.4,0 6.2,2.8 6.2,6.2c0,3.4 -2.8,6.2 -6.2,6.2c-3.4,0 -6.2,-2.8 -6.2,-6.2c0.1,-3.4 2.8,-6.2 6.2,-6.2l0,0zm0,-1.5c4.2,0 7.6,3.4 7.6,7.6c0,4.2 -3.4,7.6 -7.6,7.6c-4.2,0 -7.6,-3.4 -7.6,-7.6c0,-4.1 3.4,-7.6 7.6,-7.6l0,0z" class="st0"/>
     <path stroke="null" fill="#3730a3" clip-rule="evenodd" fill-rule="evenodd" d="m533.8,52l0,-7.8l3.3,0c0.8,0 1.4,0.1 1.8,0.2c0.4,0.1 0.7,0.4 0.9,0.7c0.2,0.4 0.3,0.8 0.3,1.2c0,0.6 -0.2,1.1 -0.5,1.5c-0.3,0.4 -0.9,0.6 -1.5,0.7c0.3,0.2 0.6,0.4 0.8,0.7c0.2,0.2 0.5,0.7 0.9,1.3l0.9,1.5l-1.9,0l-1.1,-1.7c-0.4,-0.6 -0.7,-1 -0.8,-1.1c-0.1,-0.2 -0.3,-0.3 -0.5,-0.3c-0.2,-0.1 -0.4,-0.1 -0.8,-0.1l-0.3,0l0,3.3l-1.5,0l0,-0.1zm1.6,-4.5l1.2,0c0.8,0 1.2,0 1.4,-0.1c0.2,-0.1 0.3,-0.2 0.4,-0.3c0.1,-0.2 0.2,-0.3 0.2,-0.6c0,-0.3 -0.1,-0.5 -0.2,-0.6c-0.1,-0.2 -0.3,-0.3 -0.6,-0.3c-0.1,0 -0.5,0 -1.1,0l-1.2,0l0,1.9l-0.1,0z" class="st0"/>
    </g>
   </g>
  </g>
 </g>
</svg>