<?xml version="1.0" encoding="utf-8"?>
<!-- Generator: Adobe Illustrator 26.0.1, SVG Export Plug-In . SVG Version: 6.00 Build 0)  -->
<svg version="1.1" id="圖層_1" xmlns="http://www.w3.org/2000/svg" xmlns:xlink="http://www.w3.org/1999/xlink" x="0px" y="0px"
	 viewBox="0 0 556.2 97.1" style="enable-background:new 0 0 556.2 97.1;" xml:space="preserve">
<style type="text/css">
	.st0{fill-rule:evenodd;clip-rule:evenodd;fill:#282B37;}
</style>
<g>
	<g>
		<path class="st0" d="M465.8,26.1V43h-11.6c-5.6,0-10.3,0.4-14.1,1.2c-3.7,0.8-7.1,2.2-10.1,4c-5.7,3.5-8.5,7.9-8.5,13.1
			c0,4.9,2.7,9.1,8.2,12.6c3.2,2.1,6.8,3.5,10.7,4.3c3.9,0.8,9,1.3,15.2,1.3h10.3v16.9h-15.5c-13.9,0-25.4-1.6-34.3-4.9
			c-11.2-4.1-19.1-10.1-23.7-18c-2.3-3.9-3.5-8-3.5-12.1c0-5.4,2-10.6,5.9-15.7c3-3.9,6.9-7.3,11.8-10.2c7.1-4.2,15.6-7,25.4-8.3
			c5.8-0.8,12.3-1.2,19.6-1.2H465.8L465.8,26.1z"/>
		<path class="st0" d="M497.9,2.1v40.7l0.2,0.8c10.5,1.4,21.9-1.2,27.2-10.7c2.7-4,3.4-6.8,3.4-6.8H552c4.1,12.1-6.3,22.7-16.7,26.8
			C552.1,64,554.2,76,553.5,96.4h-27.6h0c0.4-16.4-2.2-35.5-28-33.9l0,33.9h-29V2.1H497.9L497.9,2.1z"/>
		<path class="st0" d="M120.2,97.1h53.1l4.2-0.1c17.7-0.5,29.5-14.4,29.6-29.5c0.2-16.9-15.3-27.3-33.1-27.3h-30h-1.5
			c-4.8,0-8-4.1-8.3-8.2c-0.3-4.7,3.5-9.7,9-9.7h58.9V2.3h-60c-22.9,0-32.7,12.8-33.1,28.1c-0.4,15,11.8,29.8,29.5,29.8h32.7
			l3.6,0.2c4.4,0.3,7.2,3.7,7.4,7.4c0.3,4.7-4.4,9.1-9.9,9.1l-65.1,0.3l0.4-75l-40.1,0C55.2,1.9,48.6,9.6,43.9,20.2L3.9,96.9L6.2,97
			l29.7-0.3C46.3,75,56.8,53.3,67.2,31.6c4-6.9,6.2-8,13.5-7.2l0,72.7H120.2L120.2,97.1z"/>
		<path class="st0" d="M255.9,2.1c7.7,0.2,13.8-0.5,18.8,1c10.7,3,16.4,7.7,19.3,13.5c1.6,3.2,2.1,6.6,2.1,10.1
			c0,6.5-1.9,12.1-6.3,16.3c-2,1.9-4,3.4-6.4,4.4c-2.4,1-6.1,2.3-10.4,3.1c17.4,9.7,22,20.5,22,45.6h-30.2
			c0-25.5-10.2-35.5-31.6-35.2v35.5h-22.6V2.1H255.9L255.9,2.1z M233.2,38.7h21.3c5.1,0,8.1-1,9.6-2.5c1.2-1.3,1.8-3,1.8-4.7
			c0-2.3-0.9-4-2.5-5.1c-1.7-1.1-4.6-1.9-8.2-1.9l-22,0V38.7L233.2,38.7z"/>
		<path class="st0" d="M340.8,46.4c8.8,0,16,6.7,16,14.8c0,8.2-7.2,14.8-16,14.8c-8.8,0-16-6.7-16-14.8
			C324.8,53.1,332,46.4,340.8,46.4L340.8,46.4z"/>
		<path class="st0" d="M340.8,26.1c25.6,0,46.4,15.8,46.4,35.2c0,19.4-20.9,35.2-46.4,35.2c-25.6,0-46.4-15.8-46.4-35.2
			C294.3,41.9,315.2,26.1,340.8,26.1L340.8,26.1z M340.8,41.4c11.7,0,21.3,8.9,21.3,19.8c0,10.9-9.6,19.8-21.3,19.8
			c-11.7,0-21.3-8.9-21.3-19.8C319.4,50.3,329,41.4,340.8,41.4L340.8,41.4z"/>
		<path class="st0" d="M540.8,6.5c3.4,0,6.2,2.8,6.2,6.2c0,3.4-2.8,6.2-6.2,6.2c-3.4,0-6.2-2.8-6.2-6.2
			C534.7,9.3,537.4,6.5,540.8,6.5L540.8,6.5z M540.8,5c4.2,0,7.6,3.4,7.6,7.6c0,4.2-3.4,7.6-7.6,7.6c-4.2,0-7.6-3.4-7.6-7.6
			C533.2,8.5,536.6,5,540.8,5L540.8,5z"/>
		<path class="st0" d="M537.7,16.6V8.8h3.3c0.8,0,1.4,0.1,1.8,0.2c0.4,0.1,0.7,0.4,0.9,0.7c0.2,0.4,0.3,0.8,0.3,1.2
			c0,0.6-0.2,1.1-0.5,1.5c-0.3,0.4-0.9,0.6-1.5,0.7c0.3,0.2,0.6,0.4,0.8,0.7c0.2,0.2,0.5,0.7,0.9,1.3l0.9,1.5h-1.9l-1.1-1.7
			c-0.4-0.6-0.7-1-0.8-1.1c-0.1-0.2-0.3-0.3-0.5-0.3c-0.2-0.1-0.4-0.1-0.8-0.1h-0.3v3.3H537.7L537.7,16.6z M539.3,12.1h1.2
			c0.8,0,1.2,0,1.4-0.1c0.2-0.1,0.3-0.2,0.4-0.3c0.1-0.2,0.2-0.3,0.2-0.6c0-0.3-0.1-0.5-0.2-0.6c-0.1-0.2-0.3-0.3-0.6-0.3
			c-0.1,0-0.5,0-1.1,0h-1.2V12.1L539.3,12.1z"/>
	</g>
</g>
</svg>
