<svg width="148.7" height="45.8" xmlns="http://www.w3.org/2000/svg" xml:space="preserve" version="1.1">

 <g>
  <title>Layer 1</title>
  <g id="svg_4">
   <path id="svg_1" fill="#282B37" d="m9.3,13.6l-4.3,0l0,-6.8l-5,0l0,25.7l9.6,0c5.9,0 9.2,-3.6 9.2,-9.7c0,-2.5 -0.7,-4.6 -2,-6.3c-1.8,-2.2 -4.1,-2.9 -7.5,-2.9l0,0l0,0zm-0.9,14.8l-3.4,0l0,-10.7l3,0c3.9,0 5.6,1.4 5.6,5.5c0,3.9 -1.5,5.2 -5.2,5.2l0,0l0,0zm22.6,-10.9l6.6,0l0,-3.9l-7.3,0c-6.3,0 -9.5,3.3 -9.5,9.4c0,6.2 3.2,9.4 9.5,9.4l7.3,0l0,-3.9l-6.6,0c-3.2,0 -4.5,-0.4 -4.6,-3.5l11.3,0l0,-3.9l-11.3,0c0.1,-3 1.4,-3.6 4.6,-3.6l0,0l0,0z" class="st0"/>
   <path id="svg_2" fill="#282B37" d="m45.7,23.3c0,2.5 0.7,4.6 2,6.3c1.8,2.3 4.1,2.9 7.5,2.9l4.3,0l0,6.8l5,0l0,-25.7l-9.6,0c-5.9,0 -9.2,3.6 -9.2,9.7l0,0l0,0zm13.8,-5.6l0,10.7l-3.1,0c-3.9,0 -5.6,-1.4 -5.6,-5.5c0,-3.9 1.5,-5.2 5.2,-5.2l3.5,0l0,0l0,0zm21.5,10.6l-4,0c-2.6,0 -3.3,-0.6 -3.3,-3.1l0,-11.6l-5,0l0,11.9c0,4.9 2.4,6.9 7.9,6.9l9.4,0l0,-18.8l-5,0l0,14.7l0,0l0,0zm9.5,-16.8l5.2,0l0,-4.7l-5.2,0l0,4.7l0,0l0,0zm0,21l5.2,0l0,-18.9l-5.2,0l0,18.9l0,0l0,0zm8.5,-9.5c0,6.2 3.2,9.4 9.5,9.4l7.3,0l0,-3.9l-6.6,0c-3.2,0 -4.5,-0.4 -4.6,-3.5l11.3,0l0,-3.9l-11.3,0c0.1,-3 1.5,-3.5 4.7,-3.5l6.6,0l0,-4l-7.3,0c-6.4,0 -9.6,3.3 -9.6,9.4l0,0l0,0zm26.6,-16.2l-5,0l0,6.8l-3.5,0l0,3.8l3.5,0l0,9.2c0,3.9 2.1,5.9 5.7,5.9l4.6,0l0,-3.8l-2,0c-2.6,0 -3.2,-1.1 -3.2,-3.7l0,-7.6l5.3,0l0,-3.8l-5.3,0l0,-6.8l-0.1,0l0,0zm9,0l0,19.1l5.4,0l0,-19.1l-5.4,0l0,0l0,0zm0,25.7l5.4,0l0,-4.6l-5.4,0l0,4.6l0,0l0,0z" class="st0"/>
   <path id="svg_3" fill="#282B37" d="m145.5,8.9l0.5,0c0.4,0 0.8,0 0.8,-0.5c0,-0.4 -0.3,-0.5 -0.7,-0.5l-0.6,0l0,1l0,0zm-0.4,-1.3l1.2,0c0.7,0 1.1,0.3 1.1,0.9c0,0.5 -0.3,0.8 -0.8,0.8l0.9,1.3l-0.5,0l-1,-1.3l-0.5,0l0,1.3l-0.5,0l0,-3l0.1,0zm3.1,1.5c0,-1.2 -0.9,-2.2 -2.1,-2.2c-1.2,0 -2.1,1 -2.1,2.2c0,1.3 0.9,2.2 2.1,2.2c1.2,0 2.1,-0.9 2.1,-2.2l0,0zm-2.1,-2.6c1.4,0 2.6,1.1 2.6,2.6c0,1.5 -1.2,2.6 -2.6,2.6c-1.4,0 -2.6,-1.1 -2.6,-2.6c0,-1.5 1.2,-2.6 2.6,-2.6l0,0z" class="st0"/>
  </g>
 </g>
</svg>