<?xml version="1.0" encoding="utf-8"?>
<!-- Generator: Adobe Illustrator 26.0.1, SVG Export Plug-In . SVG Version: 6.00 Build 0)  -->
<svg version="1.1" id="be_quiet_x21__x5F_Logo_x5F_pos_x5F_RGB"
	 xmlns="http://www.w3.org/2000/svg" xmlns:xlink="http://www.w3.org/1999/xlink" x="0px" y="0px" viewBox="0 0 148.7 32.8"
	 style="enable-background:new 0 0 148.7 32.8;" xml:space="preserve">
<style type="text/css">
	.st0{fill:#312e81;}
</style>
<path class="st0" d="M9.3,7.1H5V0.3H0V26h9.6c5.9,0,9.2-3.6,9.2-9.7c0-2.5-0.7-4.6-2-6.3C15,7.8,12.7,7.1,9.3,7.1L9.3,7.1L9.3,7.1z M8.4,21.9H5
	V11.2H8c3.9,0,5.6,1.4,5.6,5.5C13.6,20.6,12.1,21.9,8.4,21.9L8.4,21.9L8.4,21.9z M31,11h6.6V7.1h-7.3c-6.3,0-9.5,3.3-9.5,9.4
	c0,6.2,3.2,9.4,9.5,9.4h7.3V22H31c-3.2,0-4.5-0.4-4.6-3.5h11.3v-3.9H26.4C26.5,11.6,27.8,11,31,11L31,11L31,11z"/>
<path class="st0" d="M45.7,16.8c0,2.5,0.7,4.6,2,6.3c1.8,2.3,4.1,2.9,7.5,2.9h4.3v6.8h5V7.1h-9.6C49,7.1,45.7,10.7,45.7,16.8
	L45.7,16.8L45.7,16.8z M59.5,11.2v10.7h-3.1c-3.9,0-5.6-1.4-5.6-5.5c0-3.9,1.5-5.2,5.2-5.2H59.5L59.5,11.2L59.5,11.2z M81,21.8h-4
	c-2.6,0-3.3-0.6-3.3-3.1V7.1h-5v11.9c0,4.9,2.4,6.9,7.9,6.9H86V7.1h-5V21.8L81,21.8L81,21.8z M90.5,5h5.2V0.3h-5.2V5L90.5,5L90.5,5z
	 M90.5,26h5.2V7.1h-5.2V26L90.5,26L90.5,26z M99,16.5c0,6.2,3.2,9.4,9.5,9.4h7.3V22h-6.6c-3.2,0-4.5-0.4-4.6-3.5h11.3v-3.9h-11.3
	c0.1-3,1.5-3.5,4.7-3.5h6.6V7.1h-7.3C102.2,7.1,99,10.4,99,16.5L99,16.5L99,16.5z M125.6,0.3h-5v6.8h-3.5v3.8h3.5v9.2
	c0,3.9,2.1,5.9,5.7,5.9h4.6v-3.8h-2c-2.6,0-3.2-1.1-3.2-3.7v-7.6h5.3V7.1h-5.3V0.3L125.6,0.3L125.6,0.3z M134.6,0.3v19.1h5.4V0.3
	H134.6L134.6,0.3L134.6,0.3z M134.6,26h5.4v-4.6h-5.4V26L134.6,26L134.6,26z"/>
<path class="st0" d="M145.5,2.4h0.5c0.4,0,0.8,0,0.8-0.5c0-0.4-0.3-0.5-0.7-0.5h-0.6V2.4L145.5,2.4z M145.1,1.1h1.2c0.7,0,1.1,0.3,1.1,0.9
	c0,0.5-0.3,0.8-0.8,0.8l0.9,1.3h-0.5L146,2.8h-0.5v1.3h-0.5V1.1L145.1,1.1z M148.2,2.6c0-1.2-0.9-2.2-2.1-2.2c-1.2,0-2.1,1-2.1,2.2
	c0,1.3,0.9,2.2,2.1,2.2C147.3,4.8,148.2,3.9,148.2,2.6L148.2,2.6z M146.1,0c1.4,0,2.6,1.1,2.6,2.6c0,1.5-1.2,2.6-2.6,2.6
	c-1.4,0-2.6-1.1-2.6-2.6C143.5,1.1,144.7,0,146.1,0L146.1,0z"/>
</svg>
