<svg width="221.59" height="70" xmlns="http://www.w3.org/2000/svg" data-name="Layer 1">

 <g>
  <title>Layer 1</title>
  <g id="svg_12">
   <path id="svg_1" d="m63.27,35.055l0,-0.05a10.29,10.29 0 0 1 10.48,-10.51a10.55,10.55 0 0 1 7.94,3.17l-2.29,2.65a8.06,8.06 0 0 0 -5.68,-2.53c-3.86,0 -6.7,3.19 -6.7,7.17l0,0.06c0,4 2.81,7.19 6.7,7.19a8,8 0 0 0 5.83,-2.61l2.29,2.32a10.5,10.5 0 0 1 -8.24,3.6a10.22,10.22 0 0 1 -10.33,-10.46z" fill="#282B37"/>
   <path id="svg_2" d="m88.01,35.055l0,-0.05a10.62,10.62 0 0 1 21.23,-0.06l0,0.06a10.62,10.62 0 0 1 -21.23,0.05zm17.49,0l0,-0.05a7,7 0 0 0 -6.9,-7.23a6.87,6.87 0 0 0 -6.85,7.17l0,0.06a6.94,6.94 0 0 0 6.91,7.19a6.83,6.83 0 0 0 6.84,-7.14z" fill="#282B37"/>
   <path id="svg_3" d="m117.48,24.845l9.05,0a8.22,8.22 0 0 1 5.86,2a6.16,6.16 0 0 1 1.68,4.41l0,0.06a6.09,6.09 0 0 1 -4.82,6.15l5.49,7.69l-4.24,0l-5,-7.08l-4.43,0l0,7.08l-3.56,0l-0.03,-20.31zm8.78,10.07c2.56,0 4.18,-1.34 4.18,-3.4l0,-0.05c0,-2.18 -1.56,-3.37 -4.2,-3.37l-5.17,0l0,6.82l5.19,0z" fill="#282B37"/>
   <path id="svg_4" d="m140.99,42.195l2.15,-2.55a9.42,9.42 0 0 0 6.41,2.67c2.21,0 3.6,-1 3.6,-2.56l0,0c0,-1.45 -0.81,-2.24 -4.58,-3.11c-4.33,-1 -6.76,-2.32 -6.76,-6.06l0,-0.06c0,-3.48 2.9,-5.89 6.93,-5.89a11.28,11.28 0 0 1 7.33,2.47l-1.92,2.7a9.22,9.22 0 0 0 -5.51,-2.09c-2.09,0 -3.31,1.08 -3.31,2.41l0,0.06c0,1.57 0.93,2.26 4.85,3.19c4.29,1 6.5,2.58 6.5,5.95l0,0.06c0,3.8 -3,6.06 -7.26,6.06a12.55,12.55 0 0 1 -8.43,-3.25z" fill="#282B37"/>
   <path id="svg_5" d="m171.59,24.705l3.31,0l8.93,20.45l-3.76,0l-2.06,-4.9l-9.6,0l-2.09,4.9l-3.65,0l8.92,-20.45zm5.11,12.38l-3.51,-8.12l-3.48,8.12l6.99,0z" fill="#282B37"/>
   <path id="svg_6" d="m191.43,24.845l3.56,0l0,20.31l-3.56,0l0,-20.31z" fill="#282B37"/>
   <path id="svg_7" d="m204.33,24.845l9.05,0a8.22,8.22 0 0 1 5.86,2a6.16,6.16 0 0 1 1.68,4.38l0,0.09a6.09,6.09 0 0 1 -4.85,6.15l5.48,7.69l-4.24,0l-5,-7.08l-4.47,0l0,7.08l-3.57,0l0.06,-20.31zm8.79,10.07c2.55,0 4.18,-1.34 4.18,-3.4l0,-0.05c0,-2.18 -1.57,-3.37 -4.21,-3.37l-5.19,0l0,6.82l5.22,0z" fill="#282B37"/>
   <path id="svg_8" d="m29.54,8.815s4.32,8.77 3.53,12.43c0,0 11.27,3.64 12.52,9.65c0,0 6.17,-8.12 -16.05,-22.08z" fill="#282B37"/>
   <path id="svg_9" d="m25.2,21.975a39.68,39.68 0 0 1 2.24,7.34l-6.37,-2.41c0.59,-3.9 -3.2,-9.83 -3.2,-9.83l7.33,4.9z" fill="#282B37"/>
   <path id="svg_10" d="m13.8,28.015a46,46 0 0 1 1.95,6.3l-5.8,-1.44c0.6,-3.9 -3.08,-8.62 -3.08,-8.62l6.93,3.76z" fill="#282B37"/>
   <path id="svg_11" d="m26.42,18.635s25.84,18.15 27.54,25.19c1.29,5.3 -2.45,10.19 -2.45,10.19s-2,-13.82 -51.51,7.17a26.63,26.63 0 0 0 7,-20.44a26.3,26.3 0 0 0 -2.43,-8.88l11.6,6.16c0,0.18 0,0.36 0.05,0.55a40.11,40.11 0 0 1 -1,13.53a31.68,31.68 0 0 0 2.95,-16.6a31.93,31.93 0 0 0 -2.56,-10.09l12.4,8.27c0.05,0.41 0.08,0.82 0.12,1.24a40,40 0 0 1 -1.34,14.88a32,32 0 0 0 -0.37,-31.17z" fill="#282B37"/>
  </g>
 </g>
</svg>