<svg width="312.802" height="90" xmlns="http://www.w3.org/2000/svg" version="1.1" enable-background="new 0 0 312.802 39.851" xml:space="preserve">
 <g>
  <title>Layer 1</title>
  <g stroke="null" id="svg_12">
   <polygon stroke="null" fill="#3730a3" points="300.1990051269531,21.40549087524414 297.8840026855469,21.40549087524414 297.8840026855469,20.234617233276367 303.57598876953125,20.234617233276367 303.57598876953125,21.40549087524414 301.2650146484375,21.40549087524414 301.2650146484375,29.52155113220215 300.1990051269531,29.52155113220215 " id="svg_1"/>
   <polygon stroke="null" fill="#3730a3" points="304.6499938964844,20.234617233276367 306.4119873046875,20.234617233276367 308.75299072265625,27.9378719329834 311.0459899902344,20.234617233276367 312.802001953125,20.234617233276367 312.802001953125,29.52155113220215 311.7359924316406,29.52155113220215 311.7359924316406,21.488052368164062 311.7179870605469,21.488052368164062 309.2569885253906,29.52155113220215 308.20098876953125,29.52155113220215 305.7439880371094,21.488052368164062 305.72198486328125,21.488052368164062 305.72198486328125,29.52155113220215 304.6499938964844,29.52155113220215 " id="svg_2"/>
   <rect stroke="null" x="46.272" fill="#3730a3" width="10.603" height="49.56829" id="svg_3" y="20.0745"/>
   <path stroke="null" fill="#3730a3" d="m119.531,20.11578l13.006,0l15.344,49.80972l-11.635,0l-2.969,-10.62669l-14.945,0l-3.142,10.62669l-10.781,0l15.122,-49.80972m6.501,10.27518l-0.111,0l-5.138,19.48456l9.983,0l-4.734,-19.48456" id="svg_4"/>
   <path stroke="null" fill="#3730a3" d="m153.044,20.10953l18.317,0c7.412,0 12.949,4.06429 12.949,12.62694c0,6.2897 -2.566,9.78982 -7.015,11.6387l0,0.13885c5.297,1.36477 8.042,4.92868 8.042,11.00197c0,11.9164 -8.387,14.40827 -15.516,14.40827l-16.777,0l0,-49.81472m10.608,40.40769l3.146,0c3.877,0 7.926,-0.72179 7.926,-5.78432c0,-5.43156 -4.164,-5.92318 -7.811,-5.92318l-3.262,0l0,11.7075m0.001,-20.70422l2.97,0c3.482,0 7.072,-1.0708 7.072,-5.2852c0,-4.56966 -3.417,-4.98748 -6.953,-4.98748l-3.089,0l0,10.27268" id="svg_5"/>
   <polyline stroke="null" fill="#3730a3" points="199.70199584960938,51.1627254486084 184.98800659179688,20.10952377319336 197.1929931640625,20.10952377319336 205.01199340820312,40.09445762634277 212.71299743652344,20.10952377319336 224.927001953125,20.10952377319336 210.31399536132812,51.1627254486084 210.31399536132812,69.92549705505371 199.70199584960938,69.92549705505371 199.70199584960938,51.1627254486084 " id="svg_6"/>
   <polyline stroke="null" fill="#3730a3" points="239.1009979248047,29.9581356048584 229.29400634765625,29.9581356048584 229.29400634765625,20.10952377319336 259.52899169921875,20.10952377319336 259.52899169921875,29.9581356048584 249.7220001220703,29.9581356048584 249.7220001220703,69.92549705505371 239.1009979248047,69.92549705505371 239.1009979248047,29.9581356048584 " id="svg_7"/>
   <polyline stroke="null" fill="#3730a3" points="264.5799865722656,20.10952377319336 292.6499938964844,20.10952377319336 292.6499938964844,29.540325164794922 275.18701171875,29.540325164794922 275.18701171875,39.81299018859863 291.67498779296875,39.81299018859863 291.67498779296875,49.23127555847168 275.18701171875,49.23127555847168 275.18701171875,60.517221450805664 293.27301025390625,60.517221450805664 293.27301025390625,69.92549705505371 264.5799865722656,69.92549705505371 264.5799865722656,20.10952377319336 " id="svg_8"/>
   <path stroke="null" fill="#3730a3" d="m22.176,31.01643c-7.059,0.7343 -10.913,6.53113 -10.913,14.03299c0,7.2942 5.403,13.42503 10.621,13.42503l1.146,-0.01501l1.929,0c0,0 1.279,0 1.288,-1.55992l0,-15.65545l10.896,0c0,8.8366 -0.026,28.68143 -0.026,28.68143s-10.754,-0.01126 -16.998,-0.01126c-11.742,0 -20.119,-12.13407 -20.119,-24.86483c0,-13.77029 9.112,-25.27138 20.458,-24.76225l16.299,0.0638l-0.008,10.66422l-14.573,0" id="svg_9"/>
   <path stroke="null" fill="#3730a3" d="m85.229,31.01643c-7.062,0.73305 -10.909,6.52988 -10.909,14.03299c0,7.2942 5.395,13.42503 10.617,13.42503l1.142,-0.01501l1.934,0c0,0 1.27,0 1.279,-1.55992l0,-15.65545l10.878,0c0,8.8366 -0.018,28.68143 -0.018,28.68143s-10.745,-0.01126 -16.985,-0.01126c-11.736,0 -20.104,-12.13407 -20.104,-24.86483c0,-13.77029 9.103,-25.27138 20.454,-24.761l16.272,0.0638l-0.004,10.66422l-14.556,0" id="svg_10"/>
  </g>
 </g>

</svg>