<svg width="144.2302965042822" height="43.685725513049505" xmlns="http://www.w3.org/2000/svg">

 <g>
  <title>Layer 1</title>
  <g id="svg_4">
   <path id="svg_1" fill="#3730a3" d="m35.63015,17.27286l4.42,0l1.08,-3.59l9.35,-5.35l1,-3.17l-4.43,0l-0.47,1.59l-6.92,3.91l-4.35,-3.76l0.53,-1.75l-4.42,0l-0.9,3l6.22,5.44l-1.11,3.68zm37.19,-4.92l-1.47,4.91l20,0l1,-3.19l-15.23,0l6.69,-2.81l-5.23,-2.91l15.47,0l1,-3.2l-20,0l-1.51,4.78l2.15,1.23l-2.87,1.19zm-58.76,-7.19l-4.38,0l-3.63,12.11l4.38,0l3.63,-12.11zm15.18,0l-4,0l-1.34,4.43l-10,0l-1,3.2l10,0l-1.34,4.46l4.49,0l3.6,-12.09l-0.41,0zm27.17,3.19l11.18,0l-0.31,1l-3.76,1.58l-6.74,0l-1,3.19l8.41,0l6.89,-2.9l1.87,-6.06l-20,0l-3.63,12.11l4.41,0l2.68,-8.92zm38.23,4.87l-1.22,4.05l4.41,0s0.75,-2.52 0.93,-3.07c-1.33,-0.37 -2.71,-0.69 -4.12,-0.98zm14.19,0.75l6.36,-2.59l1.86,-6.22l-20,0l-1.9,6.36a46.92,46.92 0 0 1 13.68,2.45zm-8.32,-5.62l11.17,0c-0.14,0.47 -0.28,0.94 -0.34,1.13l-3.43,1.45l-8.18,0c0.17,-0.54 0.68,-2.24 0.78,-2.58z"/>
   <path id="svg_2" fill="#3730a3" d="m136.63015,41.09286c-3,-8.9 -7.54,-15.22 -12.69,-19.69c4.61,-4.49 7.76,-10.58 8.33,-18.81c0,0 -1.88,8.19 -12,16c-15,-10.23 -33,-7.32 -33,-7.32a61.3,61.3 0 0 1 29.3,9.91c-9.46,6 -24.46,11.2 -48.09,11.37c0,0 33.83,5.1 52.25,-8.44a66.93,66.93 0 0 1 15.9,16.98z"/>
   <path id="svg_3" fill="#3730a3" d="m133.38015,7.50286a2.4,2.4 0 1 1 2.4,2.41a2.39,2.39 0 0 1 -2.4,-2.41zm4.41,0a2,2 0 1 0 -4,0a2,2 0 1 0 4,0zm-0.82,1.35l-0.39,0l-0.76,-1.26l-0.59,0l0,1.26l-0.34,0l0,-2.67l1.16,0c0.71,0 0.94,0.26 0.94,0.71s-0.36,0.72 -0.84,0.73l0.82,1.23zm-1.26,-1.49c0.38,0 0.94,0.07 0.94,-0.48s-0.34,-0.46 -0.68,-0.46l-0.76,0l0,0.95l0.5,-0.01z"/>
  </g>
 </g>
</svg>