<svg width="594.9" height="180" xmlns="http://www.w3.org/2000/svg" text-rendering="geometricPrecision" shape-rendering="geometricPrecision" image-rendering="optimizeQuality" enable-background="new 0 0 594.9 142.4">
 <g>
  <title>Layer 1</title>
  <g id="svg_4">
   <path id="svg_1" d="m102.5,158.05c0,0.3 0.1,0.2 -0.2,0.2c0,-0.7 -0.1,0 0.2,-0.2zm35.6,-139.3l0.5,0c1.1,0.1 1.9,0.9 2.1,1.9c0.3,1.4 -0.1,0.5 0.6,1.6c0.6,0.9 0.5,2.3 -0.4,3.1c-1.1,1 -2.6,0 -5.3,1.2c-0.8,0.4 -0.5,0.5 -1,1.1c-0.4,0.5 -0.7,0.6 -1.2,1c-0.9,0.6 -1.2,1.5 -2.1,2.1c-0.4,0.3 -0.9,0.5 -1.3,0.8c-1.8,1.2 -2.2,1.5 -4.8,1.5c0.2,0.9 1.2,2.2 1.6,3.9c1.2,5.8 -5.7,10.7 -11.6,5.2c-0.9,-0.9 -1.7,-2 -2.6,-2.9c-3.6,-3.4 -5.6,-0.6 -4.6,2.5c0.4,1.4 1.2,2.5 1.9,3.6s1.5,2.1 2.3,3.2l10.6,11.4c0.5,0.5 0.8,0.9 1.3,1.5c1.3,1.4 2.6,3 3.7,4.6c0.4,0.6 0.7,1 1.1,1.6c2.9,4.7 4.6,9.3 2.8,14.9c-2.9,9.4 -13.2,14.2 -22.7,11c-0.5,-0.2 -1.7,-0.7 -2,-0.6l-3.8,1.7c-4.4,1.6 -9.7,2.2 -14.3,0.9c-1.4,-0.4 -3.1,-1.3 -3.8,-1.5c-0.7,1.2 -2,2.2 -3.2,2.9c-5.5,3.5 -10,3 -13.6,4.7c2,3.8 7.5,4.7 10.7,2.2c1.2,-1 1.3,-2.8 2.9,-3.1c4.6,-0.8 3.6,6.9 -2.2,9.9c-4,2 -8.8,1.8 -12.7,-0.4c-2.6,-1.4 -3.8,-3.1 -4.4,-3.6c-0.6,1.3 -0.8,3.6 -0.3,5.2c1.9,5.9 11.5,3.9 16.2,3c5.1,-1 10,-2.5 15.1,-3.2c2.7,-0.4 6.1,-0.6 8.7,-0.3c4.7,0.6 9.3,2.6 11.5,6.9c1.7,3.3 1.8,6.5 0.7,10c-1.1,3.2 -3,5 -5.8,6.4c0.7,1 1.2,1.3 1.6,2.7c0.8,2.4 -0.1,4.6 0.2,5.6c0.3,0.7 0.4,0.8 0.5,1.7c0.2,1.5 -1.2,5 -2.1,6.1c-0.6,0.7 -0.4,0.4 -0.8,1.4c-0.5,1.2 -1.2,1.4 -1.3,2.8c-0.1,0.5 -0.3,1.3 -0.2,1.8c0.2,1.1 1,2 0.2,3.3c-0.3,0.6 -0.9,1.1 -1.7,1.2l-0.6,0c-0.2,0 -0.4,-0.1 -0.6,-0.2c-1.1,-0.5 -0.2,-0.4 -1.5,-0.2c-0.5,0.1 -1.1,-0.1 -1.5,-0.4c-0.8,-0.5 -1.4,-1.7 -0.8,-3s1,-1.4 1.3,-2.9c0.1,-0.9 0.3,-1.1 0,-1.7s-0.5,-0.9 -0.5,-1.6c-0.1,-1.2 0,-0.8 -0.4,-1.8s-0.4,-2.4 -0.5,-3.3c-0.1,-0.7 -0.1,-1.4 0,-2.1c0.1,-1.3 0.8,-1.9 1.4,-2.8c-1.4,0.3 -3.3,-0.1 -4.5,-0.5s-2.4,-1.3 -3,-2.3c-1.7,-2.4 -1.4,-5.9 0.4,-7.8c3.6,-3.8 10.3,-2.6 10.8,-5.1c0.4,-1.9 -0.8,-2.7 -2,-3.2c-4.2,-1.6 -14.4,1.2 -18.1,2.1c-6.9,1.7 -11.2,2.8 -18.3,2.8c-12.1,0 -19.9,-12.8 -14.2,-24.4c1.1,-2.3 2.9,-4.3 4.6,-5.9c0.5,-0.4 1.2,-0.7 1.3,-1.4c0.4,-2.6 -0.1,-3 1,-6.8c0.8,-2.8 1.8,-5.1 3.3,-7.2c0.6,-0.9 1.6,-2.2 2.4,-2.9c0.7,-0.6 2.2,-2 3,-2.2c0,-0.7 -0.4,-1.6 -0.5,-2.4c-0.8,-4 0.2,-8.3 1.4,-11.9c0.3,-1 0.8,-3.7 1.1,-4.4c-1.6,0 -2.1,0.2 -3.3,0.7c-0.9,0.5 -1.7,1 -2.3,1.7c-3.9,4.8 -0.6,7.7 -0.5,8.8c0.2,1.2 -0.7,2.2 -1.4,2.5c-2,0.9 -4.2,-1.7 -4.9,-2.7c-1.1,-1.8 -1.6,-3.7 -1.2,-6.4c0.6,-4.3 2.8,-7.4 6.2,-9.7c1.1,-0.7 4,-2.2 5.6,-2.2c-0.3,-1.2 -2.6,-2.4 -3.7,-2.8c-2,-0.7 -4,0.1 -5.1,1c-2.3,1.9 -3.9,4.9 -5,8c-2.3,6.4 -3.9,13.3 -6.6,19.6c-1,2.4 -2.1,4.3 -3.6,6.3c-1.4,1.9 -3.1,3.4 -5.1,4.6c-6.5,3.8 -14.8,0.3 -17.2,-5.6c-0.8,-2 -0.9,-2.8 -0.9,-5.5c-2.2,1.1 -5,-0.3 -6.6,-1.6c-2.2,-1.8 -3.1,-0.2 -5.4,-3.4c-0.3,-0.5 -0.7,-0.7 -1.1,-1.2c-0.6,-0.8 -0.9,-2.1 -1.6,-2.9c-1.2,-1.3 -0.1,-1.2 -1.8,-2.6c-2.3,-1.8 -3.3,-0.7 -4.3,-2.3c-0.7,-1.3 -0.3,-2.3 0.6,-3.1c0.3,-0.2 0.2,-0.1 0.4,-0.2c0.7,-0.6 0.5,-1.6 1.7,-2.2c2.7,-1.2 3.1,2 4.3,3c0.7,0.6 1.1,1.1 2.1,1.2c1.4,0.1 1.8,0.7 3.5,1c1.1,0.2 3.6,1.5 4.5,2.1c1,0.7 1.2,1.3 1.8,2.4c0.8,-0.6 2.2,-4.8 6.3,-4.9c3.6,-0.1 5.7,1.7 6.6,4.4c1.7,4.8 -4.2,11.6 0.3,12.5c5.2,1.1 9.6,-17.2 10.9,-22c0.4,-1.3 0.9,-2.8 1.4,-4.1c2.6,-7.8 7.3,-16.1 16.6,-16.5c0.7,0 0.8,-0.1 1.2,-0.1l3.6,0.5c7.1,1.8 11.7,7 13.5,14c0.4,1.5 0,2 1.4,2.8c2,1.2 3.6,2.8 5.2,4.4c1.4,1.4 2.4,3.1 3.4,4.8c1.5,2.4 2.4,5.6 2.5,8.5c1.8,0.4 3.2,0.9 4.8,1.8c2.8,1.5 4.8,3.8 7,6c0.7,0.7 2.4,2.8 3.3,3.1c0.1,-0.5 0.4,-0.8 0.6,-1.4c1.2,-3.5 -0.7,-7.5 -4,-8.9c-1.5,-0.6 -2.2,-0.1 -3.2,-0.4c-2.8,-0.9 -2.4,-4.8 2.7,-5.3c6.1,-0.6 11.1,5.7 11.9,11.5c0.2,1.8 0,3.7 -0.4,5.3c-0.1,0.5 -0.3,1 -0.3,1.5c1.6,0 3.8,-1.3 4.5,-2.2c4.1,-4.9 -2.1,-11.6 -5.2,-15.3l-3.2,-3.4c-1.8,-1.8 -5.3,-5.7 -7,-7.8c-0.3,-0.3 -0.4,-0.5 -0.7,-0.8c-3.3,-4.3 -8.2,-12.1 -4.6,-19.3c2.3,-4.6 7.4,-7.4 12.7,-6.7c3.1,0.4 3.5,1.5 4.7,1.8c0.5,-2.2 2.1,-3.6 4,-4.6c2.6,-1.3 0.7,0.3 2.6,-1.6c0.9,-0.9 1.3,-1.2 2.7,-1.5c0.6,-0.1 1.3,-0.2 1.8,-0.3c1.3,-0.2 4.7,-0.2 5.8,-0.1c0.7,0.1 1.2,-0.2 1.7,-0.4c2.4,-1.3 2.4,-2.7 3.8,-2.8zm-33.5,139.6c0.1,0.2 0.2,0.1 0,0.4l-0.2,-0.4l-0.7,-1.4c-0.8,0.4 -0.6,0.7 -1.3,1.1c0.7,-2 1,-0.4 1.5,-5.6c-0.4,-0.5 -0.8,-0.6 -0.9,-1.5c-0.2,-2 -0.8,-2.4 -0.8,-4.1c0,-0.9 -0.2,-1.3 -0.1,-2.1c0.1,-1.6 1.4,-2 1.7,-3.2c1.1,-4.7 -7.3,-0.1 -8.8,-5.5c-1.7,-6.3 7.9,-5.3 10.9,-7.9c2.1,-1.7 1.5,-5.1 -0.2,-6.7c-3.4,-3.1 -11.8,-1.5 -16.2,-0.5c-9.3,2.1 -23.7,7.4 -31.5,1.1c-3.1,-2.5 -6.2,-7.4 -5.1,-13.8c0.7,-4.3 4.1,-9.3 7.8,-11.3c-0.3,-4.7 0.8,-8.7 2.7,-12.3c1.6,-3 4.4,-6.4 7.8,-7.3c-0.2,-0.7 -0.8,-1.3 -1.1,-2.3c-1,-2.7 -0.7,-5.9 -0.1,-8.5c0.8,-3.6 2.4,-6.7 2.4,-10.6c-0.7,-1 -4.9,-0.3 -5.9,0.1c-1.8,0.7 -3.1,1.8 -4,2.9c-1,1.3 -1.8,2.7 -2.1,4.7c-0.4,2.8 0.3,3.4 1.1,5.6c-0.7,-0.3 -1.6,-1.4 -2,-2.1c-2.9,-5.5 2.2,-14.8 12.4,-14.8c0,-2.7 -4.1,-6.5 -7.4,-7.1c-4.9,-1 -7.7,2.6 -9.4,5c-6.2,8.8 -7.5,36.5 -22.1,36.3c-4.4,-0.1 -7.5,-2.9 -8.8,-5.8c-0.9,-2 -0.9,-3.9 -0.4,-6.2c0.6,-2.7 2,-4.5 1.2,-5.2c-0.7,0.1 -0.9,0.7 -1.2,1.3c-0.8,1.7 -2,3.2 -4.2,3.5c-1.7,0.2 -2.8,-0.6 -3.7,-1.3c-0.5,-0.4 -0.8,-0.9 -1.5,-1.1c-1.5,-0.5 -2.5,-0.1 -3.4,-1.7c-0.5,-0.8 -0.7,-0.8 -1.2,-1.4c-0.4,-0.5 -0.5,-1.1 -0.8,-1.8c-0.4,-0.7 -0.7,-0.9 -1,-1.4c-0.7,-1.1 0.3,-1 -0.8,-1.8c-2,-1.5 -2.3,-2.2 -4.9,-2.7l2,-0.1l-0.3,-2c0.5,1.4 1.1,2 2.3,2.9c3,2.5 1.6,0.9 3.4,1.4c0.7,0.2 1,0.6 2,0.8c0.9,0.2 1.4,0.1 2.1,0.6l1.7,0.9c2,1 1.6,4.1 3.9,4c1.4,0 1.8,-1.7 2.5,-2.8c1.4,-2.2 3.7,-4 6.8,-1.9c2.6,1.8 1,5.7 0.3,8.2c-1.1,3.6 -0.9,6 2,7.4c5.3,2.5 9.1,-6 10.6,-9.8c3.6,-9.8 5.8,-24.5 12.7,-29.7c4.6,-3.4 11,-3.9 16.2,-0.6c2.2,1.4 3.8,3.1 5.1,5.4c2.4,4.2 1.8,7.7 2.8,8.3c1.6,1.1 2.3,1.1 4.3,2.9c4.4,3.9 7.8,9.2 7,16c4.8,-0.3 8,2.5 10.3,4.6c0.8,0.7 1.2,1.3 1.8,2c2.6,2.7 2.8,2.9 5.8,5.1c1,-0.7 2.2,-2.8 2.6,-4.5c1,-3.8 -0.7,-7.7 -3.6,-10c-1.9,-1.5 -3.1,-1.4 -5.3,-1.7c5,-3 12.2,3.5 11.5,11.3c-0.2,2.8 -1,4 -2,6.1c2.7,1.5 8.5,-0.7 10.5,-3.7c2.3,-3.5 0.8,-8.1 -1.1,-11.2c-1.2,-1.9 -2.6,-3.8 -4,-5.3l-7.9,-8.6c-2.9,-2.9 -5.9,-6.8 -7.7,-10.8c-4.4,-9.9 2.9,-17.5 10.7,-15.7c4.6,1.1 6.7,5.8 7.6,6.2c1.9,0.8 -0.5,-2.7 -0.7,-3.3c-1,-2.7 0,-5.1 2.7,-6.2c2.3,-0.9 1.2,0 2.9,-1.9c0.9,-1 2.1,-1 3.6,-1.3c1,-0.2 1.4,0 2.3,0.1c0.8,0.1 1.4,-0.3 2.1,-0.2c1,0.1 0.6,0.6 1.8,0.2c0.9,-0.4 2.7,-0.9 3.4,-1.5c0.5,-0.4 0.6,-0.8 1.1,-1.2c-0.2,0.6 -0.6,1 -0.8,1.5c0.4,0.3 1.2,0.4 1.8,0.5c-1.6,0.3 -1.5,-0.3 -3.4,0.5c-0.9,0.4 -1.9,0.6 -2.6,1.1c-0.3,0.9 -0.2,1.1 -1,1.6c-1.1,0.7 -1.6,1.9 -2.7,2.5c-0.3,0.2 -0.6,0.2 -0.8,0.4c-0.4,0.2 -0.4,0.3 -0.7,0.6c-1.6,1.3 -2.7,0.1 -4.3,0.6c-1.4,0.4 -1.8,1.8 -1,3.1c1.4,2.2 2.8,5 0.6,7.3c-2.4,2.5 -5.4,0.8 -7,-0.9c-1.2,-1.4 -3.3,-4 -5.6,-4.7c-2.9,-0.8 -5.5,1.8 -5.5,4.5c0,4.5 4.5,10 7.4,12.9c0.4,0.4 0.8,0.9 1.2,1.4s0.9,0.8 1.3,1.3c1.7,1.8 4.8,4.8 6.2,6.6l2.3,2.7c2.7,3.2 5.6,7.3 6.1,11.7c0.8,6.7 -3.2,11.4 -6.8,13.6s-8.3,2.7 -12.6,1.6c-1.3,-0.3 -2.7,-1.1 -3.8,-1.3c-0.8,0.4 -1.3,0.9 -2.3,1.4c-0.8,0.4 -1.8,0.8 -2.6,1.1c-4.8,1.6 -10.6,1.9 -15.2,-0.5c-0.8,-0.4 -1.5,-1 -2.2,-1.4c-1.9,5.1 -8.9,6.4 -13.8,7.7c-2.6,0.7 -3.9,1.5 -5.3,1.9c0.2,1 0.6,1.9 1.1,2.7c1.5,2.4 3.3,3.9 6.5,4.4c4.1,0.7 7.7,-0.9 9.6,-4.4c0.4,5 -6.2,7 -10.2,6.5c-4.6,-0.6 -7.4,-3.4 -9.7,-7c-2.1,2 -3.8,6.4 -2.4,10.3c3.9,10.3 23.7,2.8 31.7,1.4c8.6,-1.5 17,-1 20.1,5.8c1.6,3.6 0.5,8.5 -1.7,10.6c-4.5,4.2 -8.9,2.6 -9.6,4c0.4,1 1.9,0.4 3.1,0.5c3.5,0.3 5,2.9 4.1,6.7c-0.3,1.3 0.6,1.8 0.6,3.1c0,0.9 -0.6,2 -0.9,3c-0.4,1.2 -1,1.4 -1.5,2.3c-0.8,1.7 0,1.1 -1.6,2.2c-0.1,1.1 -0.3,2 -0.4,3.1c0.2,1.2 0.6,1.2 0.8,2.5zm472.9,-74.2l-21.2,0l0,-21.9l22.1,0c5.2,0 9.2,4 9.2,8.9c0,4.4 0.5,7.5 -2.9,10.7c-1.8,1.5 -3.9,2.3 -7.2,2.3zm-28.6,-28.7l0,64.6c0,0.4 0.1,0.5 0.5,0.5l6.9,0l0,-29l13.1,0c0.5,0 1.9,2.6 2.3,3.4l8.4,14.6c0.8,1.2 1.4,2.4 2.1,3.7l4.3,7.3l8.4,0c-2.7,-5.1 -6.6,-11.2 -9.3,-16.2c-0.8,-1.6 -7.2,-12.2 -7.3,-12.8c1,0 2.6,-0.2 3.6,-0.4c1.2,-0.2 2.2,-0.6 3.1,-1c5.8,-2.4 9.9,-8.5 9.9,-14.8l0,-4.1c0,-8.9 -7.3,-16.2 -16.2,-16.2l-29.3,0c-0.3,-0.1 -0.5,0 -0.5,0.4zm-337.4,28.7l-21.2,0l0,-21.9l22.3,0c4.8,0 8.9,4 8.9,8.2s0.6,8.6 -3,11.4c-1,0.8 -1.6,1.2 -2.9,1.7c-1.2,0.4 -2.6,0.6 -4.1,0.6zm-28.5,36.3l7.3,0l0,-29l13.1,0c0.5,0 0.7,0.7 1.2,1.6c0.4,0.7 0.7,1.1 1.1,1.8c1.6,2.9 3.7,6.2 5.2,9.1l9.5,16.5l8.4,0c-0.2,-0.9 -3.4,-6 -4.1,-7.2l-5.2,-9c-2.2,-3.9 -5.4,-9 -7.4,-12.8c2.3,0 5,-0.5 6.7,-1.3c1,-0.4 1.8,-0.8 2.6,-1.4c2.2,-1.5 4.5,-3.9 5.7,-6.2c2.2,-4.2 1.7,-7.8 1.7,-12.5c0,-3 -1.4,-6.3 -3.1,-8.5c-3,-4.1 -7.6,-6.6 -12.9,-6.6l-29.8,0l0,65.5zm183,-58.2l33.6,0l-12.6,21.8c-4.2,7.1 -8.4,14.9 -12.6,21.8c-0.7,1.2 -1.4,2.3 -2.1,3.6s-1.4,2.4 -2.1,3.7l-4.2,7.4l42,0c0.5,-0.9 4,-6.6 4.1,-7.3l-33.5,0l2.1,-3.6c0.7,-1.3 1.4,-2.4 2.1,-3.7c3.4,-5.7 7,-12.4 10.4,-18.1l12.6,-21.8c0.6,-1 6,-10.2 6.2,-11l-46,0l0,7.2zm-95.2,58.2l7.9,0c0.2,-0.8 0.8,-2 1.1,-2.9l3.5,-8.6c1.5,-3.8 3.1,-7.6 4.7,-11.5l9.2,-23c0.6,0.7 15.7,38.6 17.5,43c0.4,0.9 0.9,2.1 1.1,3l7.9,0l-25.7,-63.5c-0.1,-0.3 -0.2,-0.6 -0.4,-1c-0.1,-0.3 -0.1,-0.3 -0.2,-0.5c-0.1,-0.3 -0.1,-0.3 -0.3,-0.5l-19.8,49.1c-1.1,2.7 -2.2,5.4 -3.3,8.1c-0.5,1.3 -1.1,2.8 -1.7,4.1l-1.5,4.2zm186.7,-58.2l41.9,0c0.2,-1.1 3.9,-6.3 4,-7.3l-45.8,0l-0.1,7.3zm0,58.2l41.9,0c0.1,-0.6 3.5,-6.2 4.1,-7.3l-46,0l0,7.3zm0,-29.5c0,0.4 0.1,0.5 0.5,0.5l40.9,0c0.5,0 0.8,-0.9 1.3,-1.6l2.2,-3.8c0.4,-0.7 0.7,-1.3 1.1,-1.9l-46,0l0,6.8z" fill="#282B37"/>
   <path id="svg_2" d="m69,90.85c0.3,-1.2 1.6,-2.5 2.2,-3.3c0.5,-0.6 0.4,-0.4 0.9,-0.9c1,-0.9 2.1,-1.7 3.5,-2c0.7,-0.1 0.9,0.1 1.3,0.4c0,2.1 -1.5,2.9 -3.2,3.7c-0.8,0.5 -3.8,2 -4.7,2.1zm-4,4c2.1,-0.6 7.8,-2.8 9.7,-3.9c1.6,-0.9 2.8,-1.7 3.8,-2.9c3.6,-4.4 -2.5,-8.9 -8.9,-2.1c-1.9,2 -4.1,5.1 -4.6,8.9zm15.3,-21.4l-0.5,0c-1.9,0 -1.3,-6.2 -1.2,-7.3c0.1,-0.8 0.3,-1.7 0.3,-2.6l0.1,0.2c0.1,0.2 0.1,0.1 0.2,0.3c2.3,3.3 2.8,9.4 1.1,9.4zm-2.8,-15.1c-0.5,4.3 -2.9,12.2 -0.2,16.1c0.9,1.3 2.6,2 4.3,1c3.6,-2.3 1.7,-9.9 -1,-13.9c-0.7,-0.9 -2.4,-3.1 -3.1,-3.2zm10.9,24.2c0,-2.8 5.2,0.4 5.7,0.8l3.6,2.7c-2.3,0 -3.9,-0.2 -5.6,-0.8c-0.8,-0.2 -3.7,-1.5 -3.7,-2.7zm14.6,5l-3.5,-3c-12,-10.4 -15.6,-3.2 -12,0.5c4.1,4.2 10.3,3.7 15.5,2.5z" fill="#282B37" stroke="#4f556c"/>
   <path id="svg_3" d="m65,94.85c0.5,-3.8 2.7,-6.9 4.6,-8.9c6.4,-6.8 12.5,-2.2 8.9,2.1c-1,1.2 -2.2,2.1 -3.8,2.9c-1.9,1.1 -7.6,3.3 -9.7,3.9zm38,-7.3c-5.1,1.2 -11.3,1.8 -15.5,-2.5c-3.7,-3.7 0,-11 12,-0.5l3.5,3zm-25.5,-29.2c0.7,0.1 2.4,2.3 3.1,3.2c2.7,3.9 4.6,11.5 1,13.9c-1.7,1.1 -3.4,0.4 -4.3,-1c-2.7,-3.9 -0.3,-11.8 0.2,-16.1zm25,99.7c0.7,-0.3 0.5,-0.7 1.3,-1.1l0.7,1.4l0.2,0c-0.2,-1.3 -0.6,-1.3 -0.4,-2.8c0.2,-1.1 0.3,-2 0.4,-3.1c1.6,-1.1 0.8,-0.6 1.6,-2.2c0.5,-1 1.1,-1.1 1.5,-2.3c0.3,-0.9 0.9,-2.1 0.9,-3c-0.1,-1.2 -1,-1.8 -0.6,-3.1c0.9,-3.8 -0.6,-6.3 -4.1,-6.7c-1.2,-0.1 -2.8,0.4 -3.1,-0.5c0.7,-1.4 5,0.2 9.6,-4c2.3,-2.1 3.3,-7 1.7,-10.6c-3.1,-6.8 -11.5,-7.3 -20.1,-5.8c-8,1.4 -27.8,9 -31.7,-1.4c-1.5,-3.9 0.2,-8.3 2.4,-10.3c2.3,3.6 5.1,6.4 9.7,7c3.9,0.5 10.5,-1.5 10.2,-6.5c-1.9,3.5 -5.5,5.1 -9.6,4.4c-3.1,-0.5 -4.9,-2 -6.5,-4.4c-0.5,-0.8 -0.9,-1.7 -1.1,-2.7c1.4,-0.4 2.7,-1.3 5.3,-1.9c4.9,-1.2 11.9,-2.6 13.8,-7.7c0.8,0.3 1.4,0.9 2.2,1.4c4.6,2.3 10.4,2.1 15.2,0.5c0.9,-0.3 1.8,-0.7 2.6,-1.1c1,-0.5 1.5,-0.9 2.3,-1.4c1,0.2 2.4,1 3.8,1.3c4.3,1.1 9,0.6 12.6,-1.6s7.6,-6.9 6.8,-13.6c-0.5,-4.4 -3.4,-8.4 -6.1,-11.7l-2.3,-2.7c-1.5,-1.8 -4.5,-4.8 -6.2,-6.6c-0.4,-0.5 -0.9,-0.8 -1.3,-1.3s-0.8,-1 -1.2,-1.4c-2.9,-2.9 -7.5,-8.3 -7.4,-12.9c0,-2.7 2.6,-5.3 5.5,-4.5c2.3,0.6 4.3,3.3 5.6,4.7c1.6,1.7 4.6,3.4 7,0.9c2.2,-2.3 0.8,-5.1 -0.6,-7.3c-0.9,-1.3 -0.4,-2.7 1,-3.1c1.6,-0.5 2.7,0.7 4.3,-0.6c0.3,-0.2 0.3,-0.3 0.7,-0.6c0.3,-0.2 0.5,-0.2 0.8,-0.4c1.1,-0.6 1.6,-1.8 2.7,-2.5c0.8,-0.5 0.7,-0.6 1,-1.6c0.7,-0.5 1.7,-0.7 2.6,-1.1c1.8,-0.7 1.7,-0.2 3.4,-0.5c-0.6,-0.1 -1.4,-0.2 -1.8,-0.5c0.2,-0.6 0.6,-0.9 0.8,-1.5c-0.6,0.4 -0.7,0.7 -1.1,1.2c-0.7,0.6 -2.5,1.1 -3.4,1.5c-1.1,0.5 -0.8,-0.1 -1.8,-0.2c-0.7,-0.1 -1.2,0.3 -2.1,0.2s-1.3,-0.3 -2.3,-0.1c-1.5,0.3 -2.7,0.3 -3.6,1.3c-1.7,1.8 -0.5,0.9 -2.9,1.9c-2.7,1.1 -3.7,3.5 -2.7,6.2c0.2,0.6 2.6,4 0.7,3.3c-0.9,-0.4 -3,-5.1 -7.6,-6.2c-7.8,-1.8 -15,5.8 -10.7,15.7c1.8,4 4.8,7.9 7.7,10.8l7.9,8.6c1.4,1.5 2.9,3.4 4,5.3c1.9,3.1 3.4,7.7 1.1,11.2c-2,3 -7.8,5.2 -10.5,3.7c0.9,-2.1 1.7,-3.3 2,-6.1c0.7,-7.8 -6.5,-14.3 -11.5,-11.3c2.2,0.3 3.4,0.2 5.3,1.7c2.9,2.3 4.5,6.2 3.6,10c-0.4,1.7 -1.6,3.8 -2.6,4.5c-3,-2.3 -3.2,-2.4 -5.8,-5.1c-0.7,-0.7 -1.1,-1.3 -1.8,-2c-2.3,-2.1 -5.5,-4.9 -10.3,-4.6c0.8,-6.7 -2.6,-12 -7,-16c-2,-1.8 -2.6,-1.8 -4.3,-2.9c-1,-0.6 -0.4,-4.2 -2.8,-8.3c-1.3,-2.3 -3,-4 -5.1,-5.4c-5.2,-3.4 -11.6,-2.9 -16.2,0.6c-7,5.2 -9.1,19.9 -12.7,29.7c-2,4 -5.8,12.5 -11.1,9.9c-2.9,-1.4 -3.1,-3.8 -2,-7.4c0.8,-2.5 2.3,-6.4 -0.3,-8.2c-3.1,-2.2 -5.4,-0.3 -6.8,1.9c-0.7,1.1 -1.1,2.8 -2.5,2.8c-2.3,0.1 -1.9,-3 -3.9,-4l-1.7,-0.9c-0.7,-0.4 -1.2,-0.4 -2.1,-0.6c-1,-0.2 -1.3,-0.6 -2,-0.8c-1.8,-0.4 -0.4,1.1 -3.4,-1.4c-1.1,-0.9 -1.7,-1.6 -2.3,-2.9l0.5,1.9l-2,0.1c2.6,0.5 2.9,1.1 4.9,2.7c1,0.8 0.1,0.7 0.8,1.8c0.3,0.5 0.7,0.7 1,1.4s0.4,1.3 0.8,1.8c0.4,0.6 0.7,0.6 1.2,1.4c0.9,1.5 1.9,1.2 3.4,1.7c0.7,0.2 1,0.8 1.5,1.1c0.9,0.7 2.1,1.5 3.7,1.3c2.2,-0.2 3.3,-1.7 4.2,-3.5c0.3,-0.6 0.5,-1.2 1.2,-1.3c0.8,0.7 -0.6,2.6 -1.2,5.2c-0.5,2.2 -0.5,4.2 0.4,6.2c1.3,2.9 4.5,5.7 8.8,5.8c14.5,0.4 15.8,-27.3 22,-36.1c1.7,-2.4 4.6,-6 9.4,-5c3.2,0.7 7.3,4.4 7.4,7.1c-10.2,0 -15.3,9.3 -12.4,14.8c0.4,0.7 1.3,1.8 2,2.1c-0.8,-2.2 -1.6,-2.8 -1.1,-5.6c0.3,-2.1 1.1,-3.4 2.1,-4.7c0.9,-1.1 2.2,-2.2 4,-2.9c1,-0.4 5.2,-1.1 5.9,-0.1c0,3.9 -1.6,7 -2.4,10.6c-0.6,2.7 -0.9,5.9 0.1,8.5c0.3,0.9 0.9,1.6 1.1,2.3c-3.4,0.9 -6.2,4.3 -7.8,7.3c-1.9,3.6 -3,7.6 -2.7,12.3c-3.7,2 -7,7 -7.8,11.3c-1.1,6.4 1.9,11.3 5.1,13.8c7.8,6.3 22.2,1 31.5,-1.1c4.4,-1 12.8,-2.6 16.2,0.5c1.8,1.6 2.3,4.9 0.2,6.7c-3.1,2.5 -12.6,1.6 -10.9,7.9c1.5,5.5 9.9,0.9 8.8,5.5c-0.3,1.2 -1.6,1.6 -1.7,3.2c-0.1,0.8 0.1,1.3 0.1,2.1c0,1.7 0.6,2.1 0.8,4.1c0.1,0.9 0.4,1 0.9,1.5c-0.5,5.3 -0.8,3.7 -1.5,5.7z" fill="#282B37"/>
  </g>
 </g>

</svg>